<svg width="289" height="278" viewBox="0 0 289 278" fill="none" xmlns="http://www.w3.org/2000/svg">
<path d="M164.692 39.6444C154.774 26.8469 146.234 13.8495 144.49 11.15C144.306 10.95 144.03 10.95 143.847 11.15C142.102 13.8495 133.562 26.8469 123.645 39.6444C38.5206 157.721 137.052 237.406 137.052 237.406L137.878 238.006C138.613 250.303 140.449 268 140.449 268H144.122H147.795C147.795 268 149.632 250.403 150.367 238.006L151.193 237.306C151.285 237.406 249.816 157.721 164.692 39.6444ZM144.122 235.606C144.122 235.606 139.715 231.507 138.521 229.408V229.207L143.847 100.633C143.847 100.233 144.398 100.233 144.398 100.633L149.724 229.207V229.408C148.53 231.507 144.122 235.606 144.122 235.606Z" fill="#001E2B"/>
</svg>
