<svg width="225" height="225" viewBox="0 0 225 225" fill="none" xmlns="http://www.w3.org/2000/svg">
<g clip-path="url(#clip0_1_13)">
<path d="M203.027 0H21.9727C9.83749 0 0 9.83749 0 21.9727V203.027C0 215.163 9.83749 225 21.9727 225H203.027C215.163 225 225 215.163 225 203.027V21.9727C225 9.83749 215.163 0 203.027 0Z" fill="#3178C6"/>
<path d="M203.027 0H21.9727C9.83749 0 0 9.83749 0 21.9727V203.027C0 215.163 9.83749 225 21.9727 225H203.027C215.163 225 225 215.163 225 203.027V21.9727C225 9.83749 215.163 0 203.027 0Z" fill="#3178C6"/>
<path fill-rule="evenodd" clip-rule="evenodd" d="M139.28 179.044V201.043C142.856 202.877 147.086 204.251 151.969 205.168C156.852 206.085 161.999 206.543 167.409 206.543C172.682 206.543 177.691 206.039 182.437 205.03C187.182 204.022 191.344 202.361 194.92 200.046C198.496 197.732 201.328 194.707 203.414 190.971C205.5 187.236 206.543 182.619 206.543 177.119C206.543 173.131 205.947 169.637 204.755 166.635C203.563 163.633 201.843 160.963 199.597 158.626C197.35 156.288 194.656 154.191 191.515 152.335C188.375 150.479 184.833 148.726 180.889 147.076C178.001 145.884 175.41 144.727 173.118 143.604C170.825 142.481 168.877 141.336 167.272 140.167C165.667 138.998 164.429 137.761 163.558 136.455C162.687 135.148 162.251 133.67 162.251 132.02C162.251 130.508 162.641 129.144 163.42 127.93C164.2 126.715 165.3 125.673 166.721 124.802C168.143 123.931 169.885 123.255 171.948 122.774C174.012 122.292 176.304 122.052 178.826 122.052C180.66 122.052 182.597 122.19 184.638 122.464C186.678 122.739 188.73 123.163 190.793 123.736C192.857 124.309 194.862 125.031 196.811 125.902C198.76 126.773 200.559 127.781 202.21 128.927V108.371C198.863 107.088 195.206 106.137 191.24 105.518C187.274 104.899 182.723 104.59 177.588 104.59C172.361 104.59 167.409 105.151 162.733 106.274C158.056 107.397 153.941 109.15 150.387 111.533C146.834 113.917 144.025 116.953 141.962 120.643C139.899 124.332 138.867 128.743 138.867 133.876C138.867 140.43 140.759 146.022 144.541 150.651C148.324 155.28 154.067 159.198 161.77 162.407C164.796 163.644 167.616 164.859 170.229 166.05C172.843 167.242 175.101 168.48 177.003 169.763C178.906 171.046 180.408 172.444 181.509 173.957C182.609 175.469 183.159 177.187 183.159 179.113C183.159 180.533 182.815 181.851 182.127 183.066C181.44 184.28 180.396 185.334 178.998 186.228C177.6 187.122 175.857 187.821 173.771 188.325C171.685 188.829 169.244 189.081 166.446 189.081C161.678 189.081 156.956 188.245 152.278 186.572C147.602 184.899 143.269 182.39 139.28 179.044ZM102.296 124.841H130.518V106.787H51.8555V124.841H79.9392V205.225H102.296V124.841Z" fill="white"/>
</g>
<defs>
<clipPath id="clip0_1_13">
<rect width="225" height="225" fill="white"/>
</clipPath>
</defs>
</svg>
